<svg width="177" height="55" viewBox="0 0 177 55" fill="none" xmlns="http://www.w3.org/2000/svg">
<g clip-path="url(#clip0_56_103)">
<path d="M23.1362 49.3624H25.1649C33.8343 49.3624 40.8617 42.2752 40.8617 33.5319V21.4711L33.9184 26.34V33.5319C33.9184 37.9063 30.7465 41.5461 26.6023 42.2384V27.6456L40.8617 17.6448V10.9673L23.1362 23.3983V49.3568V49.3624Z" fill="white"/>
<path d="M23.139 16.229L0 0V33.9501C0 36.7901 0.551995 39.5481 1.64198 42.1451C2.69273 44.6516 4.19741 46.9039 6.11398 48.8339C8.03055 50.7668 10.261 52.2843 12.7463 53.344C15.3214 54.4433 18.0561 55 20.8722 55H25.403C28.219 55 30.9538 54.4433 33.5288 53.344C36.0142 52.2843 38.2474 50.7668 40.1612 48.8339C42.0777 46.901 43.5824 44.6516 44.6332 42.1451C45.7232 39.5481 46.2751 36.7901 46.2751 33.9501V0L23.1362 16.229H23.139ZM43.2406 33.9501C43.2406 43.883 35.2549 51.9367 25.4058 51.9367H20.875C11.0259 51.9367 3.04018 43.883 3.04018 33.9501V19.8009L12.3597 26.3456V33.5375C12.3597 37.9119 15.5315 41.5517 19.6757 42.244V27.6512L5.41348 17.6419L3.03738 15.9747V5.86086L23.139 19.9592L43.2406 5.86086V33.9501Z" fill="white"/>
<path d="M82.6286 32.7631C83.825 30.8048 84.4218 28.4084 84.4218 25.5741V6.62939H76.7555V19.5606H80.3841L76.7555 23.2201V25.6193C76.7555 27.5183 76.2764 28.9821 75.3209 30.005C74.3654 31.0308 72.9896 31.5423 71.1964 31.5423C69.4031 31.5423 68.0441 31.0308 67.1166 30.005C66.1892 28.9821 65.7268 27.5183 65.7268 25.6193V6.62939H58.0605V25.5741C58.0605 28.4084 58.6294 30.8132 59.7642 32.7857C60.899 34.761 62.4457 36.2389 64.4043 37.2167C66.3629 38.1972 68.5821 38.6861 71.0619 38.6861C73.5416 38.6861 75.7916 38.1888 77.8091 37.1941C79.8265 36.1993 81.4321 34.7242 82.6286 32.7631Z" fill="white"/>
<path d="M114.684 38.3698V23.6301C114.684 20.2842 113.809 17.6562 112.061 15.7402C110.312 13.8271 107.973 12.8691 105.045 12.8691C103.4 12.8691 101.92 13.1941 100.606 13.8412C99.2894 14.4912 98.2442 15.3729 97.4681 16.4863V13.1404H89.8018V38.3698H97.4681V24.67C97.4681 22.9829 97.8996 21.6717 98.7682 20.7364C99.634 19.8038 100.8 19.3347 102.265 19.3347C103.731 19.3347 104.893 19.8038 105.762 20.7364C106.628 21.6717 107.062 22.9829 107.062 24.67V38.3698H114.684Z" fill="white"/>
<path d="M120.019 16.5623V38.3695H127.685V13.1401H123.412L120.019 16.5623Z" fill="white"/>
<path d="M123.874 2.15332C122.529 2.15332 121.431 2.55459 120.579 3.35149C119.727 4.15121 119.301 5.1544 119.301 6.35822C119.301 7.56204 119.727 8.52284 120.579 9.31974C121.431 10.1195 122.529 10.5179 123.874 10.5179C125.219 10.5179 126.273 10.1195 127.124 9.31974C127.976 8.52284 128.402 7.53379 128.402 6.35822C128.402 5.18266 127.976 4.15121 127.124 3.35149C126.273 2.55459 125.188 2.15332 123.874 2.15332Z" fill="white"/>
<path d="M142.659 31.3163C142.3 30.9857 142.121 30.4431 142.121 29.6886V19.5607H147.142V13.1403H142.121V6.99121H134.455V13.1403H131.406V19.5607H137.063L134.455 22.1916V29.5982C134.455 32.7038 135.231 34.9419 136.786 36.3125C138.338 37.6859 140.507 38.3697 143.287 38.3697H147.187V31.8137H144.452C143.614 31.8137 143.018 31.6498 142.659 31.3163Z" fill="white"/>
<path d="M168.706 13.1401L162.968 28.9198L157.184 13.1401H148.621L158.798 37.5105L156.854 41.8595H164.89L177 13.1401H168.706Z" fill="white"/>
<path d="M84.9177 50.1056C85.2427 49.7015 85.4052 49.2154 85.4052 48.6418C85.4052 47.9551 85.1783 47.4012 84.7271 46.9802C84.276 46.5591 83.6119 46.3472 82.7377 46.3472H80.384V54.2483H81.1686V50.9477H82.6144L84.5534 54.2483H85.4949L83.4775 50.8912C84.1135 50.7697 84.5926 50.5097 84.9177 50.1056ZM81.1686 50.3034V47.0141H82.7377C83.3794 47.0141 83.8501 47.1554 84.1499 47.438C84.4497 47.7205 84.5983 48.1218 84.5983 48.6418C84.5983 49.1617 84.4441 49.5489 84.1331 49.8513C83.8221 50.1536 83.3626 50.3034 82.7489 50.3034H81.1686Z" fill="white"/>
<path d="M95.8288 46.7711C95.2376 46.4292 94.5764 46.2568 93.845 46.2568C93.1137 46.2568 92.4636 46.4292 91.8724 46.7711C91.2812 47.1131 90.8161 47.5935 90.477 48.2067C90.138 48.8199 89.967 49.5151 89.967 50.2922C89.967 51.0693 90.138 51.7645 90.477 52.3777C90.8161 52.9909 91.2812 53.4713 91.8724 53.8132C92.4636 54.1552 93.1193 54.3275 93.845 54.3275C94.5707 54.3275 95.2376 54.1552 95.8288 53.8132C96.4201 53.4713 96.8824 52.9909 97.2186 52.3777C97.5549 51.7645 97.723 51.0693 97.723 50.2922C97.723 49.5151 97.5549 48.8199 97.2186 48.2067C96.8824 47.5935 96.4201 47.1131 95.8288 46.7711ZM96.5125 52.0612C96.2435 52.5698 95.8765 52.9598 95.4141 53.2311C94.9518 53.5024 94.4278 53.638 93.845 53.638C93.2622 53.638 92.7382 53.5024 92.2759 53.2311C91.8136 52.9598 91.4465 52.5698 91.1775 52.0612C90.9085 51.5525 90.774 50.9619 90.774 50.2922C90.774 49.6225 90.9085 49.0347 91.1775 48.5288C91.4465 48.023 91.8136 47.6359 92.2759 47.3646C92.7382 47.0933 93.2622 46.9577 93.845 46.9577C94.4278 46.9577 94.9518 47.0933 95.4141 47.3646C95.8765 47.6359 96.2435 48.023 96.5125 48.5288C96.7815 49.0347 96.916 49.6225 96.916 50.2922C96.916 50.9619 96.7815 51.5525 96.5125 52.0612Z" fill="white"/>
<path d="M103.305 46.3472H102.52V54.2483H106.118V53.604H103.305V46.3472Z" fill="white"/>
<path d="M110.601 54.2484H114.692V53.5928H111.386V50.5974H114.356V49.9418H111.386V46.9915H114.692V46.3359H110.601V54.2484Z" fill="white"/>
<path d="M121.966 46.3472H119.601V54.2483H120.386V50.8799H121.966C122.849 50.8799 123.51 50.6736 123.95 50.2582C124.39 49.8428 124.611 49.2974 124.611 48.6192C124.611 47.941 124.39 47.3843 123.944 46.9689C123.499 46.5535 122.84 46.3472 121.966 46.3472ZM121.966 50.2017H120.386V47.0141H121.966C122.608 47.0141 123.076 47.1497 123.367 47.421C123.658 47.6923 123.804 48.0907 123.804 48.6192C123.804 49.6732 123.19 50.2017 121.966 50.2017Z" fill="white"/>
<path d="M130.069 46.3472H129.285V54.2483H132.882V53.604H130.069V46.3472Z" fill="white"/>
<path d="M139.683 46.4487L136.825 54.2481H137.654L138.338 52.3718H141.902L142.586 54.2481H143.415L140.568 46.4487H139.683ZM138.573 51.7162L140.12 47.4434L141.667 51.7162H138.573Z" fill="white"/>
<path d="M150.308 50.4503L148.268 46.3472H147.383L149.916 51.1738V54.2483H150.7V51.1738L153.211 46.3472H152.337L150.308 50.4503Z" fill="white"/>
</g>
<defs>
<clipPath id="clip0_56_103">
<rect width="177" height="55" fill="white"/>
</clipPath>
</defs>
</svg>
